<svg width="77" height="24" viewBox="0 0 77 24" fill="none" xmlns="http://www.w3.org/2000/svg">
<g id="Logo">
<path id="logo" fill-rule="evenodd" clip-rule="evenodd" d="M60.8572 16.1339L60.8601 16.1339V17.6477H66.7638V15.8701C66.6135 15.8701 66.3968 15.8731 66.1107 15.8821C65.8246 15.8911 65.553 15.912 65.2987 15.942C65.3276 15.5853 65.3507 15.2076 65.3652 14.8089C65.3796 14.4102 65.3883 14.1044 65.3883 13.8856V0H64.1717C64.0648 0.0929302 63.8741 0.194854 63.5967 0.302773C63.3192 0.413689 62.9436 0.50662 62.4697 0.584561C61.9957 0.662502 61.4062 0.701473 60.7011 0.701473V2.47914C60.8659 2.46415 61.1086 2.45216 61.4322 2.44316C61.753 2.43417 62.0362 2.42218 62.2761 2.40719C62.2472 2.75193 62.224 3.10567 62.2096 3.47139C62.1922 3.84011 62.1865 4.16087 62.1865 4.44266V14.0504C62.1865 14.4581 62.1662 14.8209 62.12 15.1386C62.0738 15.4594 61.9582 15.7052 61.7703 15.8761C61.5829 16.0465 61.2805 16.1335 60.8601 16.1339V16.1279L60.8572 16.1339ZM12.9176 6.57416C12.9176 5.73179 12.8049 5.03631 12.5795 4.48173C12.3541 3.93015 12.0334 3.51646 11.623 3.24366C11.2098 2.97087 10.7185 2.84196 10.1463 2.85695H9.06549V13.8197C9.06549 14.2394 9.05682 14.6471 9.04237 15.0338C9.02792 15.4235 9.0048 15.7203 8.9759 15.9211C9.23021 15.8912 9.55676 15.8702 9.95556 15.8612C10.3544 15.8522 10.6289 15.8492 10.7792 15.8492V17.6478H4.199V16.104C4.54578 16.089 4.83476 16.041 5.06595 15.9631C5.30003 15.8852 5.4792 15.7053 5.60635 15.4265C5.7335 15.1477 5.79708 14.6951 5.79708 14.0715V2.87494H4.75963C3.90423 2.88993 3.22801 3.1957 2.73096 3.78625C2.2339 4.37981 1.98827 5.30611 1.98827 6.56816H0.5L0.612704 1.28613H14.2701L14.4059 6.56816H12.9176V6.57416ZM19.6594 18.0255C18.5613 18.0255 17.5932 17.7707 16.7522 17.2671C15.9113 16.7605 15.2582 16.044 14.7929 15.1177C14.3276 14.1914 14.0936 13.0972 14.0936 11.8352C14.0936 10.744 14.3276 9.72477 14.7929 8.77449C15.2582 7.8242 15.9171 7.05678 16.7638 6.47222C17.6134 5.88766 18.6017 5.59688 19.7259 5.59688C20.3559 5.59688 20.9743 5.68681 21.5754 5.86667C22.1765 6.04654 22.7197 6.35531 23.2081 6.78998C23.6965 7.22765 24.0866 7.81821 24.3814 8.56764C24.6762 9.31708 24.812 10.2494 24.7975 11.3735L17.4053 11.5144C17.4053 12.3568 17.5065 13.1122 17.7088 13.7807C17.911 14.4522 18.2463 14.9798 18.7115 15.3695C19.1768 15.7592 19.801 15.9541 20.5813 15.9541C20.8818 15.9541 21.2228 15.9001 21.6072 15.7892C21.9915 15.6813 22.3816 15.4984 22.7775 15.2406C23.1763 14.9828 23.5462 14.6381 23.893 14.2004L24.9074 15.1807C24.367 15.9751 23.789 16.5806 23.1734 16.9913C22.5579 17.405 21.9453 17.6808 21.3355 17.8217C20.7258 17.9626 20.168 18.0315 19.6565 18.0315L19.6594 18.0255ZM17.5411 9.86867H21.6881C21.6736 9.21516 21.5869 8.69655 21.428 8.31284C21.269 7.93212 21.0552 7.65333 20.7864 7.48246C20.5148 7.31159 20.1998 7.22465 19.8386 7.22465C19.1768 7.22465 18.6595 7.47047 18.2838 7.9621C17.9082 8.45373 17.6596 9.08925 17.5411 9.86567V9.86867ZM28.3901 17.2671C29.2311 17.7707 30.1992 18.0255 31.2973 18.0255L31.2944 18.0315C31.8059 18.0315 32.3637 17.9626 32.9734 17.8217C33.5832 17.6808 34.1958 17.405 34.8114 16.9913C35.4269 16.5806 36.0049 15.9751 36.5453 15.1807L35.5309 14.2004C35.1842 14.6381 34.8143 14.9828 34.4155 15.2406C34.0196 15.4984 33.6294 15.6813 33.2451 15.7892C32.8607 15.9001 32.5197 15.9541 32.2192 15.9541C31.4389 15.9541 30.8147 15.7592 30.3495 15.3695C29.8842 14.9798 29.549 14.4522 29.3467 13.7807C29.1444 13.1122 29.0433 12.3568 29.0433 11.5144L36.4355 11.3735C36.4499 10.2494 36.3141 9.31708 36.0193 8.56764C35.7246 7.81821 35.3344 7.22765 34.8461 6.78998C34.3577 6.35531 33.8144 6.04654 33.2133 5.86667C32.6122 5.68681 31.9938 5.59688 31.3638 5.59688C30.2396 5.59688 29.2513 5.88766 28.4017 6.47222C27.555 7.05678 26.8961 7.8242 26.4308 8.77449C25.9656 9.72477 25.7315 10.744 25.7315 11.8352C25.7315 13.0972 25.9656 14.1914 26.4308 15.1177C26.8961 16.044 27.5492 16.7605 28.3901 17.2671ZM33.326 9.86867H29.1791V9.86567C29.2976 9.08925 29.5461 8.45373 29.9218 7.9621C30.2974 7.47047 30.8147 7.22465 31.4765 7.22465C31.8377 7.22465 32.1527 7.31159 32.4244 7.48246C32.6931 7.65333 32.907 7.93212 33.0659 8.31284C33.2249 8.69655 33.3115 9.21516 33.326 9.86867ZM42.3767 23.988C41.0849 23.988 40.0619 23.8441 39.3106 23.5563C38.5592 23.2686 38.0246 22.8908 37.7096 22.4232C37.3946 21.9555 37.2357 21.4579 37.2357 20.9273C37.2357 20.6006 37.3021 20.2738 37.4379 19.944C37.5738 19.6173 37.7934 19.3025 38.1026 18.9968C38.4118 18.694 38.8337 18.4392 39.377 18.2383C38.7615 18.0675 38.328 17.7917 38.0824 17.408C37.8339 17.0272 37.7096 16.6165 37.7096 16.1819C37.7096 15.7772 37.8685 15.3215 38.1835 14.8149C38.4985 14.3083 39.0707 13.9246 39.8972 13.6578C39.2672 13.394 38.747 12.9803 38.3425 12.4197C37.9379 11.8591 37.7183 11.1816 37.6894 10.3872C37.6605 9.45193 37.8859 8.62156 38.3656 7.8991C38.8453 7.17365 39.4782 6.61007 40.2584 6.20537C41.0387 5.80068 41.8594 5.59683 42.7148 5.59683C43.1049 5.59683 43.5557 5.65079 44.0672 5.76171C44.5787 5.86963 45.0209 6.05848 45.3966 6.32229C45.5613 5.83965 45.7751 5.38399 46.0381 4.95531C46.3011 4.52664 46.619 4.1759 46.9946 3.9031C47.3703 3.63031 47.7894 3.49541 48.2575 3.49541C48.769 3.49541 49.1562 3.63331 49.4192 3.9031C49.6822 4.1759 49.8122 4.53863 49.8122 4.99129C49.8122 5.17715 49.7718 5.38399 49.688 5.61182C49.6042 5.83665 49.4626 6.02851 49.2603 6.18439C49.058 6.34027 48.7748 6.41821 48.4165 6.41821C48.191 6.41821 47.9656 6.32828 47.7402 6.14842C47.5148 5.96855 47.379 5.75571 47.3356 5.5069C47.1391 5.56985 46.9455 5.7707 46.749 6.11544C46.5525 6.45718 46.4398 6.76296 46.4109 7.02676C46.8473 7.41646 47.1767 7.86912 47.4021 8.38174C47.6275 8.89735 47.7402 9.44894 47.7402 10.0425C47.7402 10.9478 47.4946 11.7452 47.0062 12.4377C46.5178 13.1302 45.8878 13.6758 45.1134 14.0745C44.3389 14.4732 43.5095 14.671 42.6223 14.671C42.4258 14.671 42.2091 14.659 41.9692 14.635C41.7294 14.6111 41.4953 14.5991 41.2699 14.5991C40.9404 14.5991 40.6601 14.662 40.4347 14.7849C40.2093 14.9108 40.0966 15.0817 40.0966 15.3005C40.0966 15.5973 40.3133 15.7982 40.7497 15.9091C41.1861 16.017 41.9288 16.1039 42.9807 16.1669C44.1366 16.2298 45.148 16.3827 46.0121 16.6225C46.8762 16.8654 47.5466 17.2431 48.0292 17.7557C48.5089 18.2713 48.7517 18.9788 48.7517 19.8841C48.7517 20.5526 48.5638 21.1431 48.1882 21.6498C47.8125 22.1564 47.3125 22.5851 46.6883 22.9358C46.0641 23.2865 45.3763 23.5503 44.6279 23.7302C43.8765 23.9101 43.1252 24 42.3738 24L42.3767 23.988ZM43.0298 22.3752C44.0961 22.3752 44.9053 22.1714 45.4515 21.7667C46.0005 21.362 46.2751 20.9393 46.2751 20.5046C46.2751 20.1779 46.1537 19.9081 45.9138 19.6982C45.674 19.4884 45.3157 19.3205 44.8446 19.1946C44.3707 19.0687 43.7667 18.9908 43.0298 18.9608C42.7003 18.9308 42.316 18.9068 41.8796 18.8918C41.4433 18.8769 41.0618 18.8379 40.7295 18.7749C40.5041 18.9608 40.3307 19.1946 40.2122 19.4764C40.0908 19.7582 40.0244 20.028 40.0099 20.2948C39.981 20.9183 40.2382 21.4189 40.7873 21.8027C41.3363 22.1834 42.0819 22.3752 43.0298 22.3752ZM42.7148 13.0942C43.1194 13.0942 43.4633 12.9623 43.7407 12.6955C44.0181 12.4317 44.2291 12.0959 44.3707 11.6913C44.5123 11.2866 44.5845 10.8729 44.5845 10.4532C44.5845 9.90759 44.5181 9.38299 44.3822 8.87637C44.2464 8.36975 44.0412 7.95606 43.7638 7.6383C43.4864 7.31754 43.128 7.15866 42.6946 7.15866C42.0935 7.15866 41.6282 7.44045 41.2959 8.00103C40.9664 8.5616 40.7988 9.20012 40.7988 9.91658C40.7988 10.4622 40.874 10.9808 41.0242 11.4724C41.1745 11.964 41.3913 12.3568 41.6773 12.6535C41.9634 12.9503 42.3073 13.0972 42.7148 13.0972V13.0942ZM51.8029 17.3002C52.6756 17.7829 53.6524 18.0257 54.7332 18.0257C55.8284 18.0257 56.7994 17.7649 57.6403 17.2433C58.4813 16.7217 59.1431 15.9752 59.6228 15.0099C60.1054 14.0447 60.3452 12.9085 60.3452 11.5985C60.3452 10.3514 60.0996 9.28124 59.6025 8.38492C59.1055 7.48859 58.4293 6.79911 57.5739 6.31647C56.7185 5.83384 55.7475 5.59102 54.6667 5.59102C53.6437 5.59102 52.7016 5.86081 51.8375 6.39741C50.9735 6.93401 50.2828 7.68944 49.7655 8.66371C49.2482 9.63498 48.9882 10.7711 48.9882 12.0632C48.9882 13.2802 49.2396 14.3354 49.7424 15.2318C50.2452 16.1281 50.9301 16.8176 51.8029 17.3002ZM56.1867 15.7114C55.8775 16.1311 55.4238 16.3499 54.8227 16.3649L54.8199 16.3679C54.2043 16.3829 53.7102 16.1461 53.3431 15.6545C52.9732 15.1628 52.7074 14.5363 52.5427 13.7719C52.375 13.0074 52.2941 12.228 52.2941 11.4336C52.2941 10.7471 52.3635 10.0906 52.508 9.45811C52.6525 8.82858 52.8923 8.30098 53.2304 7.8813C53.5686 7.46161 54.0309 7.24278 54.6176 7.22779C55.0684 7.2128 55.4469 7.3507 55.7562 7.64747C56.0654 7.94425 56.311 8.33396 56.4902 8.81659C56.6694 9.29923 56.7994 9.83883 56.8832 10.4294C56.967 11.0229 57.0075 11.6075 57.0075 12.1831C57.0075 12.8366 56.9497 13.4841 56.8283 14.1226C56.7098 14.7611 56.4931 15.2917 56.1867 15.7114ZM70.4169 1.23194C69.6222 2.05032 69.2234 3.40231 69.2234 5.28789L69.2176 5.2789V5.95639H67.5733V7.89593L69.2176 7.87195V14.0443C69.2176 14.452 69.1916 14.8147 69.1396 15.1325C69.0876 15.4532 68.9662 15.6991 68.7783 15.8699C68.5905 16.0408 68.2871 16.1277 67.8652 16.1277V17.6476H73.8818V15.8699C73.7315 15.8699 73.4946 15.8729 73.1709 15.8819C72.8472 15.8909 72.5583 15.9119 72.3039 15.9419C72.3328 15.5822 72.356 15.1984 72.3704 14.7848C72.3849 14.3711 72.3935 14.0563 72.3935 13.8375L72.3704 7.82998L74.873 7.76103V5.96238H72.3502V3.08754C72.3502 2.85372 72.3704 2.62889 72.4166 2.41005C72.4629 2.19421 72.5525 2.00835 72.6883 1.86146C72.8241 1.71458 73.012 1.63963 73.2518 1.63963C73.327 1.63963 73.4137 1.65162 73.5119 1.6756C73.6102 1.69959 73.6969 1.75055 73.772 1.82849C73.7546 1.90643 73.746 1.98437 73.7373 2.06231C73.7286 2.14025 73.7257 2.2182 73.7257 2.29614C73.7257 2.68585 73.8471 3.0096 74.087 3.26741C74.3268 3.52521 74.6649 3.64512 75.1013 3.63014C75.5521 3.61515 75.8989 3.45027 76.1388 3.1385C76.3786 2.82674 76.5 2.46701 76.5 2.06231C76.5 1.73556 76.4104 1.4148 76.2312 1.10303C76.0521 0.791269 75.7486 0.530465 75.3296 0.320623C74.9077 0.11078 74.3442 0.00585938 73.6391 0.00585938C72.2866 0.00585938 71.2116 0.413553 70.4169 1.23194Z" fill="#FAFAFA"/>
</g>
</svg>
